<svg xmlns="http://www.w3.org/2000/svg" width="933.333" height="933.333" preserveAspectRatio="xMidYMid meet" version="1.0" viewBox="0 0 700 700"><metadata>Created by potrace 1.14, written by Peter Selinger 2001-2017</metadata><g fill="#000" stroke="none"><path d="M630 6985 c-267 -54 -485 -238 -579 -489 -53 -142 -50 26 -50 -3011 0 -2767 0 -2821 20 -2895 63 -243 238 -443 469 -537 141 -56 -43 -53 3037 -51 l2838 3 81 26 c221 69 403 234 494 447 63 150 59 -64 59 3022 0 1853 -3 2833 -10 2868 -47 247 -232 475 -464 571 -154 65 64 60 -3020 60 -2274 -1 -2822 -3 -2875 -14z" transform="translate(0.000000,700.000000) scale(0.100000,-0.100000)"/></g></svg>